<?xml version="1.0" encoding="utf-8"?>
<!-- Generator: Adobe Illustrator 19.0.0, SVG Export Plug-In . SVG Version: 6.00 Build 0)  -->
<svg version="1.1" id="Layer_1" xmlns="http://www.w3.org/2000/svg" xmlns:xlink="http://www.w3.org/1999/xlink" x="0px" y="0px"
	 viewBox="0 0 524.9 90.4" style="enable-background:new 0 0 524.9 90.4;" xml:space="preserve">
<style type="text/css">
	.st0{fill:#202025;}
	.st1{fill:#EE5644;}
</style>
<g id="XMLID_36_">
	<g id="XMLID_37_">
		<g id="XMLID_288_">
			<path id="XMLID_313_" class="st0" d="M159.7,63.9c-1.7,0.2-3.3,0.3-4.8,0.3c-4.4,0-7.7-0.6-9.8-1.9c-2.1-1.2-3.5-3.3-4.2-6.1
				c-0.7-2.8-1-7.1-1-12.8c0-5.6,0.4-9.9,1.1-12.7c0.7-2.9,2.1-4.9,4.2-6.2c2.1-1.3,5.4-1.9,9.8-1.9c1.5,0,3.1,0.1,4.7,0.3
				c1.6,0.2,3,0.5,4,0.8v7.1c-3.3-0.4-5.6-0.5-6.7-0.5c-2.7,0-4.5,0.3-5.5,0.8c-1,0.5-1.6,1.6-1.9,3.2c-0.3,1.6-0.4,4.7-0.4,9.1
				c0,4.4,0.1,7.5,0.4,9.1c0.3,1.6,0.9,2.7,1.9,3.2c1,0.5,2.8,0.8,5.5,0.8c2.3,0,4.6-0.2,6.8-0.5v7.1
				C162.8,63.4,161.4,63.7,159.7,63.9z"/>
			<path id="XMLID_310_" class="st0" d="M173.6,62.4c-2.1-1.2-3.4-3.1-4-5.8c-0.5-2.7-0.8-7.1-0.8-13.2s0.3-10.5,0.8-13.2
				c0.5-2.7,1.8-4.6,4-5.8c2.1-1.2,5.6-1.8,10.5-1.8c5,0,8.5,0.6,10.6,1.8c2.1,1.2,3.4,3.1,3.9,5.8c0.5,2.6,0.8,7,0.8,13.2
				c0,6.2-0.3,10.6-0.8,13.2c-0.5,2.6-1.8,4.6-3.9,5.8c-2.1,1.2-5.6,1.8-10.6,1.8C179.2,64.2,175.7,63.6,173.6,62.4z M188.4,55.9
				c0.7-0.4,1.2-1.5,1.4-3.1c0.2-1.6,0.3-4.8,0.3-9.4c0-4.7-0.1-7.8-0.3-9.4c-0.2-1.6-0.7-2.6-1.4-3.1c-0.7-0.4-2.2-0.6-4.3-0.6
				s-3.6,0.2-4.3,0.6c-0.7,0.4-1.2,1.5-1.4,3.1c-0.2,1.6-0.3,4.8-0.3,9.4c0,4.7,0.1,7.8,0.3,9.4c0.2,1.6,0.7,2.6,1.4,3.1
				c0.7,0.4,2.2,0.6,4.3,0.6S187.6,56.3,188.4,55.9z"/>
			<path id="XMLID_308_" class="st0" d="M226.8,63.7l-11.9-23.2h-0.3v23.2h-8.8V23.1h9.3l11.2,21.3h0.3V23.1h8.8v40.6H226.8z"/>
			<path id="XMLID_306_" class="st0" d="M249.3,63.7V31h-9.6v-7.9h28.4V31h-9.6v32.7H249.3z"/>
			<path id="XMLID_304_" class="st0" d="M272.7,63.7V23.1h24.4v7.6h-15.3v8.7h13.1V47h-13.1v9.1h15.3v7.6H272.7z"/>
			<path id="XMLID_302_" class="st0" d="M324.5,63.7l-11.9-23.2h-0.3v23.2h-8.8V23.1h9.3l11.2,21.3h0.3V23.1h8.8v40.6H324.5z"/>
			<path id="XMLID_300_" class="st0" d="M346.9,63.7V31h-9.6v-7.9h28.4V31h-9.6v32.7H346.9z"/>
			<path id="XMLID_298_" class="st0" d="M369.8,63.2V56c4.9,0.4,8.3,0.6,10.4,0.6c1.6,0,2.9-0.1,3.8-0.2c0.9-0.2,1.6-0.4,1.9-0.8
				c0.4-0.4,0.6-0.8,0.7-1.3c0.1-0.5,0.1-1.2,0.1-2.2c0-1.3-0.1-2.2-0.2-2.7c-0.2-0.5-0.5-0.9-1-1.2c-0.5-0.2-1.3-0.5-2.5-0.6
				l-6.5-0.9c-3-0.4-5-1.6-6.1-3.5c-1.1-1.9-1.6-4.6-1.6-8.1c0-3.4,0.6-6,1.7-7.8c1.1-1.8,2.7-3,4.7-3.6c2-0.6,4.5-0.9,7.5-0.9
				c3.7,0,7.6,0.4,11.5,1.2v7.1c-3.5-0.4-6.7-0.6-9.4-0.6c-2.9,0-4.8,0.3-5.6,0.8c-0.5,0.3-0.8,0.7-0.9,1.2
				c-0.1,0.5-0.2,1.2-0.2,2.3c0,1.1,0.1,1.9,0.2,2.4c0.1,0.5,0.4,0.8,0.8,1c0.4,0.2,1.1,0.4,2.2,0.6l7,1c1.6,0.2,2.9,0.6,3.9,1.2
				s1.9,1.5,2.6,2.8c0.8,1.7,1.2,4.2,1.2,7.4c0,3.8-0.5,6.6-1.6,8.6c-1.1,1.9-2.5,3.2-4.3,3.8s-4.2,0.9-7.2,0.9
				C377.9,64.2,373.5,63.8,369.8,63.2z"/>
			<path id="XMLID_296_" class="st0" d="M408.5,63.7V31H399v-7.9h28.4V31h-9.6v32.7H408.5z"/>
			<path id="XMLID_293_" class="st0" d="M451.5,63.7l-2.1-8.1h-12l-1.9,8.1h-9.2l10.9-40.6H450l10.8,40.6H451.5z M443.6,31.4h-0.4
				l-4,16.6h8.3L443.6,31.4z"/>
			<path id="XMLID_291_" class="st0" d="M483.9,63.9c-1.7,0.2-3.3,0.3-4.8,0.3c-4.4,0-7.7-0.6-9.8-1.9s-3.5-3.3-4.2-6.1
				c-0.7-2.8-1-7.1-1-12.8c0-5.6,0.4-9.9,1.1-12.7c0.7-2.9,2.1-4.9,4.2-6.2c2.1-1.3,5.4-1.9,9.8-1.9c1.5,0,3.1,0.1,4.7,0.3
				c1.6,0.2,3,0.5,4,0.8v7.1c-3.3-0.4-5.6-0.5-6.7-0.5c-2.7,0-4.5,0.3-5.5,0.8c-1,0.5-1.6,1.6-1.9,3.2s-0.4,4.7-0.4,9.1
				c0,4.4,0.1,7.5,0.4,9.1c0.3,1.6,0.9,2.7,1.9,3.2s2.8,0.8,5.5,0.8c2.3,0,4.6-0.2,6.8-0.5v7.1C487,63.4,485.6,63.7,483.9,63.9z"/>
			<path id="XMLID_289_" class="st0" d="M514.7,63.7l-9.1-16.8h-2.5v16.8H494V23.1h9.1v16.1h2.5l9.3-16.1h9.9L513,42.5l11.9,21.2
				H514.7z"/>
		</g>
	</g>
	<g id="XMLID_115_">
		<g id="XMLID_206_">
			<g id="XMLID_220_">
				<g id="XMLID_231_">
					<path id="XMLID_232_" class="st1" d="M83.4,36.5c0,1-0.8,1.7-1.7,1.7H50.4c-1,0-1.7-0.8-1.7-1.7V33c0-1,0.8-1.7,1.7-1.7h31.3
						c1,0,1.7,0.8,1.7,1.7V36.5z"/>
				</g>
				<g id="XMLID_229_">
					<path id="XMLID_230_" class="st1" d="M97.4,46.9c0,1-0.8,1.7-1.7,1.7H57.4c-1,0-1.7-0.8-1.7-1.7v-3.5c0-1,0.8-1.7,1.7-1.7h38.2
						c1,0,1.7,0.8,1.7,1.7V46.9z"/>
				</g>
				<g id="XMLID_227_">
					<path id="XMLID_228_" class="st1" d="M107.8,57.4c0,1-0.8,1.7-1.7,1.7H64.3c-1,0-1.7-0.8-1.7-1.7v-3.5c0-1,0.8-1.7,1.7-1.7H106
						c1,0,1.7,0.8,1.7,1.7V57.4z"/>
				</g>
				<g id="XMLID_225_">
					<path id="XMLID_226_" class="st1" d="M107.8,67.8c0,1-0.8,1.7-1.7,1.7H64.3c-1,0-1.7-0.8-1.7-1.7v-3.5c0-1,0.8-1.7,1.7-1.7H106
						c1,0,1.7,0.8,1.7,1.7V67.8z"/>
				</g>
				<g id="XMLID_223_">
					<path id="XMLID_224_" class="st1" d="M97.4,78.2c0,1-0.8,1.7-1.7,1.7H57.4c-1,0-1.7-0.8-1.7-1.7v-3.5c0-1,0.8-1.7,1.7-1.7h38.2
						c1,0,1.7,0.8,1.7,1.7V78.2z"/>
				</g>
				<g id="XMLID_221_">
					<path id="XMLID_222_" class="st1" d="M83.4,88.7c0,1-0.8,1.7-1.7,1.7H50.4c-1,0-1.7-0.8-1.7-1.7v-3.5c0-1,0.8-1.7,1.7-1.7h31.3
						c1,0,1.7,0.8,1.7,1.7V88.7z"/>
				</g>
			</g>
			<g id="XMLID_207_">
				<g id="XMLID_218_">
					<path id="XMLID_219_" class="st1" d="M24.3,5.2c0,1,0.8,1.7,1.7,1.7h31.3c1,0,1.7-0.8,1.7-1.7V1.7c0-1-0.8-1.7-1.7-1.7L26.1,0
						c-1,0-1.7,0.8-1.7,1.7V5.2z"/>
				</g>
				<g id="XMLID_216_">
					<path id="XMLID_217_" class="st1" d="M10.4,15.6c0,1,0.8,1.7,1.7,1.7h38.2c1,0,1.7-0.8,1.7-1.7v-3.5c0-1-0.8-1.7-1.7-1.7H12.2
						c-1,0-1.7,0.8-1.7,1.7V15.6z"/>
				</g>
				<g id="XMLID_214_">
					<path id="XMLID_215_" class="st1" d="M0,26.1c0,1,0.8,1.7,1.7,1.7h41.7c1,0,1.7-0.8,1.7-1.7v-3.5c0-1-0.8-1.7-1.7-1.7H1.7
						c-1,0-1.7,0.8-1.7,1.7L0,26.1z"/>
				</g>
				<g id="XMLID_212_">
					<path id="XMLID_213_" class="st1" d="M0,36.5c0,1,0.8,1.7,1.7,1.7h41.7c1,0,1.7-0.8,1.7-1.7V33c0-1-0.8-1.7-1.7-1.7H1.7
						c-1,0-1.7,0.8-1.7,1.7L0,36.5z"/>
				</g>
				<g id="XMLID_210_">
					<path id="XMLID_211_" class="st1" d="M10.4,46.9c0,1,0.8,1.7,1.7,1.7h38.2c1,0,1.7-0.8,1.7-1.7v-3.5c0-1-0.8-1.7-1.7-1.7H12.2
						c-1,0-1.7,0.8-1.7,1.7V46.9z"/>
				</g>
				<g id="XMLID_208_">
					<path id="XMLID_209_" class="st1" d="M24.3,57.4c0,1,0.8,1.7,1.7,1.7h31.3c1,0,1.7-0.8,1.7-1.7v-3.5c0-1-0.8-1.7-1.7-1.7H26.1
						c-1,0-1.7,0.8-1.7,1.7V57.4z"/>
				</g>
			</g>
		</g>
	</g>
</g>
</svg>
