<?xml version="1.0" encoding="utf-8"?>
<!-- Generator: Adobe Illustrator 19.0.0, SVG Export Plug-In . SVG Version: 6.00 Build 0)  -->
<svg version="1.1" id="Layer_1" xmlns="http://www.w3.org/2000/svg" xmlns:xlink="http://www.w3.org/1999/xlink" x="0px" y="0px"
	 viewBox="0 0 445.9 40" style="enable-background:new 0 0 445.9 40;" xml:space="preserve">
<style type="text/css">
	.st0{fill:#414249;}
	.st1{fill-rule:evenodd;clip-rule:evenodd;fill:#FCB463;}
	.st2{fill-rule:evenodd;clip-rule:evenodd;fill:#F97E4E;}
	.st3{fill-rule:evenodd;clip-rule:evenodd;fill:#EE444C;}
	.st4{fill:#41424A;}
</style>
<g>
	<g>
		<g>
			<path class="st0" d="M110.6,25.9c0,4.2-2.9,7.8-7.1,7.8c-4.4,0-6.7-3.2-6.7-7.4V11.8h-6.8v14.5c0,8.6,4.8,13.6,11.4,13.6
				c3.9,0,6.5-1.4,9.3-4.2l0.4,3.7h6.1V11.8h-6.8V25.9z"/>
			<path class="st0" d="M199.3,11.2L199.3,11.2c-8.8,0-14.3,6.5-14.3,14.4c0,7.9,5.4,14.4,14.3,14.4c9,0,14.4-6.4,14.4-14.4
				C213.7,17.7,208.1,11.2,199.3,11.2z M199.3,33.7c-5,0-7.5-3.9-7.5-8.1c0-4.1,2.6-8.2,7.5-8.2c4.6,0,7.5,4,7.5,8.2
				C206.8,29.8,204.3,33.7,199.3,33.7z"/>
			<path class="st0" d="M121.5,4c0,5.3,8.1,5.3,8.1,0C129.6-1.3,121.5-1.3,121.5,4z"/>
			<path class="st0" d="M73.7,11.1c-0.2,0-0.5,0-0.7,0c-2.9,0.2-6.9,1.8-8.4,4.4V0.2h-6.8v39.1h6.4l0.4-3.8c2,3.1,5.2,4.3,8.4,4.4
				c0.2,0,0.4,0,0.5,0c8.1,0,14.2-5.4,14.2-14.5C87.8,16,81.8,11.1,73.7,11.1z M73.1,33.7L73.1,33.7c-4.4,0-8-3.2-8-8.1
				c0-4.8,3.6-8,7.9-8.1h0.1c4.4,0,7.8,3.1,7.8,8.1C81,30.4,77.5,33.7,73.1,33.7z"/>
			<rect x="122.1" y="11.7" class="st0" width="6.8" height="27.7"/>
			<rect x="175.8" y="11.7" class="st0" width="6.8" height="27.7"/>
			<path class="st0" d="M175.2,4c0,5.3,8.1,5.3,8.1,0C183.3-1.3,175.2-1.3,175.2,4z"/>
			<rect x="133.8" y="0.2" class="st0" width="6.8" height="39.1"/>
			<path class="st0" d="M163.4,35.8c0,5.3,8.1,5.3,8.1,0C171.5,30.5,163.4,30.5,163.4,35.8z"/>
			<path class="st0" d="M155.7,33.6c-2.1,0-3.6-1.3-3.6-3.9V17.7h7.7v-5.9h-7.6V4h-6.8v25.6c0,6.9,3.9,10.3,9.9,10.1
				c2.1-0.1,3.7-0.4,5.7-1.2l-1.9-5.8C158,33.2,156.8,33.6,155.7,33.6z"/>
		</g>
		<path class="st0" d="M215.5,2.6c-2.2,0-4,1.8-4,4c0,2.2,1.8,4,4,4c2.2,0,4-1.8,4-4C219.5,4.4,217.7,2.6,215.5,2.6z M215.5,9.9
			c-1.8,0-3.3-1.5-3.3-3.3c0-1.8,1.5-3.3,3.3-3.3c1.8,0,3.3,1.5,3.3,3.3C218.7,8.4,217.3,9.9,215.5,9.9z"/>
		<path id="text3175_68_" class="st0" d="M215.3,6.3c0.2,0,0.4,0,0.5-0.1c0.1-0.1,0.1-0.2,0.1-0.4c0-0.2,0-0.3-0.1-0.4
			c-0.1-0.1-0.2-0.1-0.5-0.1h-0.4v1H215.3 M214.9,7v1.5h-1v-4h1.6c0.5,0,0.9,0.1,1.1,0.3c0.2,0.2,0.4,0.5,0.4,0.8
			c0,0.3-0.1,0.5-0.2,0.6c-0.1,0.2-0.3,0.3-0.6,0.4c0.1,0,0.3,0.1,0.4,0.2c0.1,0.1,0.2,0.3,0.3,0.5l0.6,1.1h-1.1l-0.5-1
			c-0.1-0.2-0.2-0.3-0.3-0.4C215.5,7,215.3,7,215.2,7H214.9"/>
	</g>
	<g>
		<path class="st1" d="M10.7,0H24c0.5,0,0.8,0.4,0.8,0.8v1.3C24.8,2.6,24.4,3,24,3H10.7c-0.5,0-0.8-0.4-0.8-0.8V0.8
			C9.9,0.4,10.3,0,10.7,0z"/>
		<path class="st1" d="M37.8,13.9H24.5c-0.5,0-0.8,0.4-0.8,0.8V16c0,0.5,0.4,0.8,0.8,0.8h13.2c0.5,0,0.8-0.4,0.8-0.8v-1.3
			C38.6,14.2,38.2,13.9,37.8,13.9z"/>
		<path class="st1" d="M4.1,4.6h17.4c0.5,0,0.8,0.4,0.8,0.8v1.3c0,0.5-0.4,0.8-0.8,0.8H4.1c-0.5,0-0.8-0.4-0.8-0.8V5.5
			C3.3,5,3.7,4.6,4.1,4.6z"/>
		<path class="st2" d="M44.4,18.5H27c-0.5,0-0.8,0.4-0.8,0.8v1.3c0,0.5,0.4,0.8,0.8,0.8h17.4c0.5,0,0.8-0.4,0.8-0.8v-1.3
			C45.2,18.9,44.8,18.5,44.4,18.5z"/>
		<path class="st1" d="M0.8,9.3h19c0.5,0,0.8,0.4,0.8,0.8v1.3c0,0.5-0.4,0.8-0.8,0.8h-19c-0.5,0-0.8-0.4-0.8-0.8v-1.3
			C0,9.6,0.4,9.3,0.8,9.3z"/>
		<path class="st3" d="M47.7,23.1h-19c-0.5,0-0.8,0.4-0.8,0.8v1.3c0,0.5,0.4,0.8,0.8,0.8h19c0.5,0,0.8-0.4,0.8-0.8V24
			C48.5,23.5,48.2,23.1,47.7,23.1z"/>
		<path class="st1" d="M0.8,13.9h19c0.5,0,0.8,0.4,0.8,0.8V16c0,0.5-0.4,0.8-0.8,0.8h-19C0.4,16.9,0,16.5,0,16v-1.3
			C0,14.3,0.4,13.9,0.8,13.9z"/>
		<path class="st3" d="M47.7,27.8h-19c-0.5,0-0.8,0.4-0.8,0.8v1.3c0,0.5,0.4,0.8,0.8,0.8h19c0.5,0,0.8-0.4,0.8-0.8v-1.3
			C48.5,28.1,48.2,27.8,47.7,27.8z"/>
		<path class="st1" d="M4.1,18.5h17.4c0.5,0,0.8,0.4,0.8,0.8v1.3c0,0.5-0.4,0.8-0.8,0.8H4.1c-0.5,0-0.8-0.4-0.8-0.8v-1.3
			C3.3,18.9,3.7,18.5,4.1,18.5z"/>
		<path class="st2" d="M44.4,32.4H27c-0.5,0-0.8,0.4-0.8,0.8v1.3c0,0.5,0.4,0.8,0.8,0.8h17.4c0.5,0,0.8-0.4,0.8-0.8v-1.3
			C45.2,32.8,44.8,32.4,44.4,32.4z"/>
		<path class="st1" d="M10.7,23.1H24c0.5,0,0.8,0.4,0.8,0.8v1.3c0,0.5-0.4,0.8-0.8,0.8H10.7c-0.5,0-0.8-0.4-0.8-0.8V24
			C9.9,23.5,10.3,23.1,10.7,23.1z"/>
		<path class="st1" d="M37.8,37H24.5c-0.5,0-0.8,0.4-0.8,0.8v1.3c0,0.5,0.4,0.8,0.8,0.8h13.2c0.5,0,0.8-0.4,0.8-0.8v-1.3
			C38.6,37.4,38.2,37,37.8,37z"/>
	</g>
	<g>
		<g>
			<path class="st0" d="M240.3,37.1c-2,2-4.6,2.9-7.1,2.9c-5.5,0-10.1-3.9-10.1-10.1s4.4-10.1,10.1-10.1c2.6,0,5.2,1,7.1,2.9
				l-1.2,1.2c-1.6-1.6-3.8-2.3-5.9-2.3c-4.4,0-8.2,3-8.2,8.3s3.7,8.3,8.2,8.3c2.1,0,4.2-0.8,5.8-2.4L240.3,37.1z"/>
			<path class="st0" d="M240.4,30c0-6.2,4.4-10.2,9.9-10.2c5.5,0,9.9,4,9.9,10.2c0,6.2-4.4,10-9.9,10C244.9,40,240.4,36.2,240.4,30z
				 M258.4,30c0-5.1-3.6-8.4-8-8.4c-4.4,0-8,3.3-8,8.4c0,5.1,3.6,8.1,8,8.1C254.8,38.1,258.4,35,258.4,30z"/>
			<path class="st0" d="M264.8,20.1v3.5c1.5-2.7,4.2-3.8,7-3.8c5.2,0,8.8,3.2,8.8,8.6v11.3h-1.9V28.4c0-4.4-2.7-6.8-7-6.8
				c-4,0-6.9,3.1-6.9,7.1v10.9h-1.9V20.1H264.8z"/>
			<path class="st0" d="M287.2,14.2v5.9h6.7v1.6h-6.7v11.9c0,2.7,0.6,4.5,3.6,4.5c1,0,2-0.3,3-0.8l0.7,1.6c-1.2,0.6-2.5,1-3.7,1
				c-4.2,0-5.5-2.5-5.5-6.3V21.7h-4.2v-1.6h4.2v-5.7L287.2,14.2z"/>
			<path class="st0" d="M293.5,29.9c0-5.9,4.4-10.1,9.9-10.1c5.5,0,10.4,3.4,9.7,11h-17.6c0.4,4.6,3.9,7.3,8,7.3c2.6,0,5.6-1,7.1-3
				l1.4,1.1c-1.9,2.5-5.3,3.8-8.4,3.8C297.9,40,293.5,36.1,293.5,29.9z M311.3,29.1c0-4.8-3.2-7.5-7.9-7.5c-4,0-7.5,2.7-8,7.5H311.3
				z"/>
			<path class="st0" d="M317.3,20.1v3.5c1.5-2.7,4.2-3.8,7-3.8c5.2,0,8.8,3.2,8.8,8.6v11.3h-1.9V28.4c0-4.4-2.7-6.8-7-6.8
				c-4,0-6.9,3.1-6.9,7.1v10.9h-1.9V20.1H317.3z"/>
			<path class="st0" d="M339.7,14.2v5.9h6.7v1.6h-6.7v11.9c0,2.7,0.6,4.5,3.6,4.5c1,0,2-0.3,3-0.8L347,39c-1.2,0.6-2.5,1-3.7,1
				c-4.2,0-5.5-2.5-5.5-6.3V21.7h-4.2v-1.6h4.2v-5.7L339.7,14.2z"/>
			<path class="st0" d="M361.4,23.7c-2-1.7-3.9-2.1-6.1-2.1c-3.1,0-6,1.1-5.9,3.6c0.1,2.6,3.5,3.1,5.9,3.6c3.5,0.6,8.3,1.2,8.1,5.7
				c-0.1,4.3-4.6,5.5-8,5.5c-3.4,0-6.9-1.3-8.6-3.9l1.4-1.3c1.6,2.3,4.6,3.3,7.2,3.3c2.4,0,6-0.6,6.1-3.7c0.1-2.8-3.2-3.4-6.4-3.9
				c-3.8-0.6-7.6-1.3-7.6-5.3c0-3.8,3.8-5.5,7.8-5.5c2.8,0,5.3,0.8,7.3,2.6L361.4,23.7z"/>
			<path class="st0" d="M370,14.2v5.9h6.7v1.6H370v11.9c0,2.7,0.6,4.5,3.6,4.5c0.9,0,2-0.3,3-0.8l0.7,1.6c-1.2,0.6-2.5,1-3.7,1
				c-4.2,0-5.5-2.5-5.5-6.3V21.7H364v-1.6h4.2v-5.7L370,14.2z"/>
			<path class="st0" d="M396.1,20.1c0,6.5,0,13,0,19.6h-1.9v-4.2c-1.9,3.1-4.8,4.5-8,4.5c-5.5,0-9.9-4.1-9.9-10.1c0-6,4.5-10,9.9-10
				c3.2,0,6.4,1.5,8,4.5v-4.3H396.1z M378.2,29.9c0,4.9,3.6,8.2,8,8.2c10.9,0,10.9-16.4,0-16.4C381.8,21.7,378.2,25,378.2,29.9z"/>
			<path class="st0" d="M415.8,37.1c-2,2-4.6,2.9-7.1,2.9c-5.5,0-10.1-3.9-10.1-10.1s4.4-10.1,10.1-10.1c2.6,0,5.2,1,7.1,2.9
				l-1.2,1.2c-1.6-1.6-3.8-2.3-5.9-2.3c-4.4,0-8.2,3-8.2,8.3s3.7,8.3,8.2,8.3c2.1,0,4.2-0.8,5.8-2.4L415.8,37.1z"/>
			<path class="st0" d="M419.5,11.9v16.7l9.2-8.6h2.6v0.1l-9.9,9.2l11.1,10.2v0.1H430l-10.5-9.6v9.6h-1.9V11.9H419.5z"/>
		</g>
		<g>
			<path class="st4" d="M436.9,11.4h-1.7v-0.9c1.5,0,2.8,0,4.4,0v0.9h-1.7v4.4h-1V11.4z"/>
			<path class="st4" d="M444.8,12l-1.7,2.3h-0.2l-1.7-2.3v3.9h-1v-5.3h1.2l1.7,2.3l1.7-2.3h1.1v5.3h-1V12z"/>
		</g>
	</g>
</g>
</svg>
