<?xml version="1.0" encoding="UTF-8"?>
<svg width="20px" height="20px" viewBox="0 0 20 20" version="1.1" xmlns="http://www.w3.org/2000/svg" xmlns:xlink="http://www.w3.org/1999/xlink">
    <!-- Generator: Sketch 43.2 (39069) - http://www.bohemiancoding.com/sketch -->
    <title>link-grey</title>
    <desc>Created with Sketch.</desc>
    <defs></defs>
    <g id="Page-1" stroke="none" stroke-width="1" fill="none" fill-rule="evenodd">
        <g id="Artboard-Copy" transform="translate(-169.000000, -209.000000)" fill-rule="nonzero" fill="#9E9E9E">
            <g id="link-grey" transform="translate(169.000000, 209.000000)">
                <g id="Group">
                    <path d="M0.421956675,14.296208 L5.68064011,9.10189753 C6.23148609,8.5575298 7.12439707,8.56598287 7.6650106,9.12058687 L7.8491288,9.30959333 L9.9377914,11.4528557 L10.1219096,11.6418621 C10.6625887,12.1961359 10.6537993,13.0954026 10.1029533,13.6397704 L4.84466346,18.8340809 C4.29342393,19.3780524 3.40057856,19.3695993 2.85989943,18.8149953 L0.403393993,16.2939842 C-0.137285143,15.7395123 -0.128954893,14.8405758 0.421956675,14.296208 Z M6.92270007,10.2251059 L6.73858187,10.0357032 C6.69811127,9.99423007 6.63101013,9.9935036 6.58949006,10.0345805 L1.33120017,15.228891 C1.29000807,15.2699679 1.28928655,15.3371966 1.32975714,15.3786697 L3.78665613,17.9000111 C3.82752027,17.9414842 3.89422786,17.9422106 3.93541996,17.9014639 L9.1941034,12.7067572 C9.23568907,12.6660105 9.236017,12.5984516 9.19554647,12.5566483 L9.01110027,12.367972 L6.92270007,10.2251059 Z" id="Shape"></path>
                    <path d="M9.18124727,5.64377875 L14.4395371,0.449072028 C14.9903831,-0.094899486 15.8836221,-0.0864463653 16.4239076,0.468157589 L18.8808066,2.98949891 C19.4210922,3.54410286 19.4126963,4.44310544 18.8618504,4.98740715 L13.6035605,10.1817177 C13.0527145,10.7260854 12.1594756,10.7172361 11.61919,10.1626321 L11.4347439,9.9739558 L9.3588718,7.81854213 L9.3464748,7.83062747 L9.1623566,7.64162093 C8.62167747,7.08708307 8.63000773,6.18775027 9.18124727,5.64377875 Z M12.3615005,9.05857527 L12.5456187,9.2475818 C12.5864829,9.28905493 12.6531905,9.28978133 12.6947105,9.24903467 L17.9530005,4.05432793 C17.9945861,4.01358125 17.9949141,3.94602233 17.9544435,3.90421901 L15.4975445,1.38320789 C15.4570739,1.34173477 15.3903663,1.34100833 15.3487807,1.38208521 L10.0900972,6.57639569 C10.0489051,6.61753862 10.0481836,6.68470133 10.0889821,6.7261744 L10.2727068,6.91518093 L12.3615005,9.05857527 Z" id="Shape"></path>
                    <path d="M6.53701605,11.5692842 L11.4169027,6.748628 C11.7341081,6.43553237 12.2481567,6.44028725 12.5594588,6.75965673 L12.5594588,6.75965673 C12.8708265,7.07935633 12.8660382,7.59691187 12.5488984,7.9104038 L7.6686838,12.7306637 C7.35147833,13.0441556 6.8374298,13.0393347 6.52612769,12.7200313 L6.52612769,12.719635 C6.21469441,12.4003316 6.21948266,11.8827761 6.53701605,11.5692842 Z" id="Shape"></path>
                </g>
                <g id="Group" transform="translate(1.574221, 1.717040)">
                    <path d="M7.3194036,8.66444853 L8.36357093,9.7355514 L8.54768913,9.92495413 C9.08836827,10.4792279 9.07957887,11.3784946 8.52873287,11.9228623 L3.270443,17.1171729 C2.71920347,17.6611443 1.8263581,17.6530875 1.28567897,17.0980873 L0.0573934542,15.8375817 L0.984150153,14.9224654 L2.21243567,16.1829709 C2.25329981,16.2244441 2.3200074,16.2251705 2.3611995,16.1844238 L7.61988293,10.9897171 C7.6614686,10.9489704 7.66179653,10.8818077 7.621326,10.8396081 L7.4372078,10.6506017 L6.3927125,9.57949887 L7.3194036,8.66444853 Z" id="Shape"></path>
                    <path d="M16.0779727,0.0116230407 L17.3065861,1.2721286 C17.8468717,1.82712879 17.8384759,2.72646157 17.2876299,3.27043309 L12.0293401,8.4647436 C11.4784941,9.00911133 10.5852551,9.000262 10.0449695,8.445658 L9.8605234,8.25698173 L8.8225874,7.17927487 L9.7431128,6.27003611 L10.7872801,7.34146913 L10.9713983,7.53047567 C11.0122625,7.57194873 11.07897,7.5726752 11.1201621,7.53192853 L16.3788456,2.33722179 C16.4204312,2.29647511 16.4211527,2.22891618 16.3802886,2.18744306 L15.1516751,0.9269375 L16.0779727,0.0116230407 Z" id="Shape"></path>
                    <path d="M10.9852383,5.0429468 L10.9852383,5.0429468 C11.296606,5.36231626 11.2918177,5.87987177 10.9746779,6.19296743 L6.09446332,11.0140198 C5.77725789,11.3271155 5.26320933,11.3223606 4.95190723,11.0029911 L4.95190723,11.0025949 L10.9852383,5.0429468 Z" id="Shape"></path>
                </g>
            </g>
        </g>
    </g>
</svg>