<?xml version="1.0" encoding="UTF-8"?>
<svg width="15px" height="16px" viewBox="0 0 15 16" version="1.1" xmlns="http://www.w3.org/2000/svg" xmlns:xlink="http://www.w3.org/1999/xlink">
    <!-- Generator: Sketch 43.2 (39069) - http://www.bohemiancoding.com/sketch -->
    <title>search(1)</title>
    <desc>Created with Sketch.</desc>
    <defs></defs>
    <g id="Page-1" stroke="none" stroke-width="1" fill="none" fill-rule="evenodd">
        <g id="Simple-search-inner-greybg" transform="translate(-813.000000, -18.000000)" fill-rule="nonzero" fill="#9B9A9A">
            <g id="search(1)" transform="translate(813.000000, 18.000000)">
                <path d="M14.9146154,15.4786415 L10.6283654,10.8135849 C11.7216346,9.66611321 12.3989423,8.08422642 12.3989423,6.33962264 C12.3989423,2.84377358 9.68163462,0 6.34125,0 C3.00086538,0 0.283557692,2.84377358 0.283557692,6.33962264 C0.283557692,9.8354717 3.00086538,12.6792453 6.34125,12.6792453 C7.8075,12.6792453 9.15317308,12.130717 10.2020192,11.2205283 L14.4986538,15.8970566 C14.5551923,15.9589434 14.6307692,15.9897358 14.7066346,15.9897358 C14.77875,15.9897358 14.8505769,15.9616604 14.9065385,15.9055094 C15.0213462,15.7898868 15.0248077,15.5987925 14.9146154,15.4786415 Z M6.34125,12.0754717 C3.31903846,12.0754717 0.860480769,9.50249057 0.860480769,6.33962264 C0.860480769,3.17675472 3.31903846,0.603773585 6.34125,0.603773585 C9.36346154,0.603773585 11.8220192,3.17675472 11.8220192,6.33962264 C11.8220192,9.50249057 9.36317308,12.0754717 6.34125,12.0754717 Z" id="Shape-Copy-4"></path>
            </g>
        </g>
    </g>
</svg>